<svg width="503" height="487" viewBox="0 0 503 487" fill="none" xmlns="http://www.w3.org/2000/svg">
<circle cx="208.383" cy="22.1884" r="20.6884" stroke="#FDE397" stroke-width="3"/>
<circle cx="22.1884" cy="59.1884" r="20.6884" stroke="#FDE397" stroke-width="3"/>
<circle cx="328.188" cy="215.188" r="20.6884" stroke="#FDE397" stroke-width="3"/>
<circle cx="74.1884" cy="358.188" r="20.6884" stroke="#FDE397" stroke-width="3"/>
<circle cx="458.188" cy="319.188" r="20.6884" stroke="#FDE397" stroke-width="3"/>
<circle cx="480.188" cy="229.188" r="20.6884" stroke="#FDE397" stroke-width="3"/>
<circle cx="256.188" cy="308.188" r="20.6884" stroke="#FDE397" stroke-width="3"/>
<circle cx="490.177" cy="398.652" r="11.0942" fill="#FDE397"/>
<circle cx="223.094" cy="388.094" r="11.0942" fill="#FDE397"/>
<circle cx="406.094" cy="442.094" r="11.0942" fill="#FDE397"/>
<circle cx="109.094" cy="55.0942" r="11.0942" fill="#FDE397"/>
<circle cx="33.0942" cy="237.416" r="11.0942" fill="#FDE397"/>
<circle cx="430.638" cy="151.99" r="5.5471" fill="#FDE397"/>
<circle cx="344.547" cy="335.547" r="5.5471" fill="#FDE397"/>
<circle cx="250.547" cy="234.547" r="5.5471" fill="#FDE397"/>
<circle cx="271.547" cy="92.5471" r="5.5471" fill="#FDE397"/>
<g clip-path="url(#clip0_49_3868)">
<path d="M85.9235 154.896H76.9425C76.6508 154.896 76.4142 154.66 76.4142 154.368V145.387C76.4142 143.928 75.2315 142.745 73.7727 142.745C72.314 142.745 71.1313 143.928 71.1313 145.387V154.368C71.1313 154.66 70.8947 154.896 70.603 154.896H61.6219C60.1632 154.896 58.9805 156.079 58.9805 157.538C58.9805 158.996 60.1632 160.179 61.6219 160.179H70.603C70.8947 160.179 71.1313 160.416 71.1313 160.707V169.688C71.1313 171.147 72.314 172.33 73.7727 172.33C75.2315 172.33 76.4142 171.147 76.4142 169.688V160.707C76.4142 160.416 76.6508 160.179 76.9425 160.179H85.9235C87.3823 160.179 88.565 158.996 88.565 157.538C88.565 156.079 87.3823 154.896 85.9235 154.896Z" fill="#FDE397"/>
</g>
<g clip-path="url(#clip1_49_3868)">
<path d="M346.943 56.1508H337.962C337.67 56.1508 337.434 55.9143 337.434 55.6225V46.6415C337.434 45.1827 336.251 44 334.792 44C333.334 44 332.151 45.1827 332.151 46.6415V55.6225C332.151 55.9143 331.914 56.1508 331.623 56.1508H322.641C321.183 56.1508 320 57.3335 320 58.7923C320 60.251 321.183 61.4338 322.641 61.4338H331.623C331.914 61.4338 332.151 61.6703 332.151 61.9621V70.9431C332.151 72.4018 333.334 73.5846 334.792 73.5846C336.251 73.5846 337.434 72.4018 337.434 70.9431V61.9621C337.434 61.6703 337.67 61.4338 337.962 61.4338H346.943C348.402 61.4338 349.585 60.251 349.585 58.7923C349.585 57.3335 348.402 56.1508 346.943 56.1508Z" fill="#FDE397"/>
</g>
<g clip-path="url(#clip2_49_3868)">
<path d="M219.943 170.151H210.962C210.67 170.151 210.434 169.914 210.434 169.623V160.641C210.434 159.183 209.251 158 207.792 158C206.334 158 205.151 159.183 205.151 160.641V169.623C205.151 169.914 204.914 170.151 204.623 170.151H195.641C194.183 170.151 193 171.334 193 172.792C193 174.251 194.183 175.434 195.641 175.434H204.623C204.914 175.434 205.151 175.67 205.151 175.962V184.943C205.151 186.402 206.334 187.585 207.792 187.585C209.251 187.585 210.434 186.402 210.434 184.943V175.962C210.434 175.67 210.67 175.434 210.962 175.434H219.943C221.402 175.434 222.585 174.251 222.585 172.792C222.585 171.334 221.402 170.151 219.943 170.151Z" fill="#FDE397"/>
</g>
<g clip-path="url(#clip3_49_3868)">
<path d="M448.506 107.168L440.067 104.096C439.793 103.996 439.651 103.693 439.751 103.419L442.823 94.9795C443.322 93.6088 442.615 92.0928 441.244 91.5939C439.873 91.095 438.357 91.8019 437.858 93.1727L434.787 101.612C434.687 101.886 434.384 102.028 434.11 101.928L425.67 98.8561C424.299 98.3572 422.783 99.0641 422.284 100.435C421.786 101.806 422.492 103.322 423.863 103.82L432.303 106.892C432.577 106.992 432.718 107.295 432.618 107.569L429.547 116.009C429.048 117.379 429.755 118.895 431.125 119.394C432.496 119.893 434.012 119.186 434.511 117.816L437.583 109.376C437.683 109.102 437.986 108.961 438.26 109.06L446.699 112.132C448.07 112.631 449.586 111.924 450.085 110.553C450.584 109.183 449.877 107.667 448.506 107.168Z" fill="#FDE397"/>
</g>
<g clip-path="url(#clip4_49_3868)">
<path d="M95.2891 450.32L88.9385 456.67C88.7322 456.877 88.3977 456.877 88.1914 456.67L81.8408 450.32C80.8094 449.288 79.1367 449.288 78.1052 450.32C77.0737 451.351 77.0737 453.024 78.1052 454.055L84.4558 460.406C84.6621 460.612 84.6621 460.947 84.4558 461.153L78.1052 467.504C77.0737 468.535 77.0737 470.208 78.1052 471.239C79.1367 472.271 80.8094 472.271 81.8408 471.239L88.1914 464.889C88.3977 464.682 88.7322 464.682 88.9385 464.889L95.2891 471.239C96.3205 472.271 97.9932 472.271 99.0247 471.239C100.056 470.208 100.056 468.535 99.0247 467.504L92.6741 461.153C92.4678 460.947 92.4678 460.612 92.6741 460.406L99.0247 454.055C100.056 453.024 100.056 451.351 99.0247 450.32C97.9932 449.288 96.3205 449.288 95.2891 450.32Z" fill="#FDE397"/>
</g>
<g clip-path="url(#clip5_49_3868)">
<path d="M300.718 465.069L291.874 466.628C291.587 466.679 291.312 466.487 291.262 466.2L289.702 457.355C289.449 455.918 288.079 454.959 286.642 455.212C285.206 455.466 284.246 456.836 284.5 458.272L286.059 467.117C286.11 467.404 285.918 467.678 285.631 467.729L276.786 469.289C275.349 469.542 274.39 470.912 274.643 472.349C274.897 473.785 276.267 474.745 277.703 474.491L286.548 472.932C286.835 472.881 287.109 473.073 287.16 473.36L288.72 482.205C288.973 483.641 290.343 484.601 291.78 484.347C293.216 484.094 294.176 482.724 293.922 481.287L292.363 472.443C292.312 472.156 292.504 471.881 292.791 471.831L301.636 470.271C303.072 470.018 304.032 468.648 303.778 467.211C303.525 465.775 302.155 464.815 300.718 465.069Z" fill="#FDE397"/>
</g>
<g clip-path="url(#clip6_49_3868)">
<path d="M180.644 284.425L171.799 285.984C171.512 286.035 171.238 285.843 171.187 285.556L169.628 276.711C169.374 275.275 168.004 274.315 166.568 274.569C165.131 274.822 164.172 276.192 164.425 277.629L165.984 286.473C166.035 286.761 165.843 287.035 165.556 287.085L156.711 288.645C155.275 288.898 154.315 290.268 154.569 291.705C154.822 293.141 156.192 294.101 157.629 293.848L166.473 292.288C166.761 292.237 167.035 292.429 167.085 292.717L168.645 301.561C168.898 302.998 170.268 303.957 171.705 303.704C173.141 303.45 174.101 302.08 173.848 300.644L172.288 291.799C172.237 291.512 172.429 291.238 172.717 291.187L181.561 289.628C182.998 289.374 183.957 288.004 183.704 286.568C183.45 285.131 182.08 284.172 180.644 284.425Z" fill="#FDE397"/>
</g>
<defs>
<clipPath id="clip0_49_3868">
<rect width="29.5846" height="29.5846" fill="white" transform="translate(58.9805 142.745)"/>
</clipPath>
<clipPath id="clip1_49_3868">
<rect width="29.5846" height="29.5846" fill="white" transform="translate(320 44)"/>
</clipPath>
<clipPath id="clip2_49_3868">
<rect width="29.5846" height="29.5846" fill="white" transform="translate(193 158)"/>
</clipPath>
<clipPath id="clip3_49_3868">
<rect width="29.5846" height="29.5846" fill="white" transform="translate(427.344 86.5347) rotate(20)"/>
</clipPath>
<clipPath id="clip4_49_3868">
<rect width="29.5846" height="29.5846" fill="white" transform="translate(67.6455 460.78) rotate(-45)"/>
</clipPath>
<clipPath id="clip5_49_3868">
<rect width="29.5846" height="29.5846" fill="white" transform="translate(272.075 457.781) rotate(-10)"/>
</clipPath>
<clipPath id="clip6_49_3868">
<rect width="29.5846" height="29.5846" fill="white" transform="translate(152 277.137) rotate(-10)"/>
</clipPath>
</defs>
</svg>
